<svg aria-hidden="true" style="position: absolute; width: 0; height: 0; overflow: hidden;" version="1.1" xmlns="http://www.w3.org/2000/svg" xmlns:xlink="http://www.w3.org/1999/xlink">
<defs>
<symbol id="icon-deno" viewBox="0 0 32 32">
<path d="M14.741 0.008c-0.075 0.008-0.315 0.036-0.531 0.055-3.077 0.323-6.108 1.625-8.579 3.695-0.67 0.592-1.282 1.203-1.854 1.851l-0.019 0.022c-2.047 2.444-3.243 5.187-3.683 8.433-0.099 0.72-0.099 3.152 0 3.872 0.441 3.247 1.637 5.989 3.683 8.433 0.592 0.67 1.203 1.282 1.851 1.854l0.022 0.019c2.444 2.047 5.187 3.243 8.433 3.683 0.72 0.099 3.152 0.099 3.872 0 3.247-0.441 5.989-1.637 8.433-3.683 0.67-0.592 1.282-1.203 1.854-1.851l0.019-0.022c2.047-2.444 3.243-5.187 3.683-8.433 0.099-0.72 0.099-3.152 0-3.872-0.441-3.247-1.637-5.989-3.683-8.433-0.592-0.67-1.203-1.282-1.851-1.854l-0.022-0.019c-2.436-2.039-5.207-3.251-8.409-3.68-0.347-0.047-0.849-0.067-1.783-0.075-0.176-0.003-0.383-0.005-0.591-0.005-0.298 0-0.594 0.004-0.89 0.011l0.044-0.001zM14.937 1.708c0 0.46 0.032 1.46 0.075 2.408 0.024 0.464 0.051 1.129 0.063 1.476 0.043 1.228 0.173 4.451 0.193 4.737l0.020 0.287-0.177-0.020c-0.074-0.004-0.144-0.019-0.209-0.044l0.005 0.002c-0.031-0.179-0.050-0.389-0.055-0.602l-0-0.004c-0.046-0.502-0.163-3.159-0.269-5.818l-0.058-1.813-0.024-0.873 0.111-0.016c0.059-0.008 0.157-0.020 0.22-0.024l0.107-0.004zM18.704 1.613c0.004 0.004 0.016 1.192 0.028 2.64 0.016 1.452 0.036 2.755 0.047 2.896 0.012 0.145 0.008 0.272-0.012 0.28-0.032 0.006-0.069 0.010-0.106 0.010s-0.074-0.004-0.11-0.010l0.004 0.001-0.181-0.016-0.028-1.145-0.043-1.563c-0.032-0.696-0.059-3.061-0.036-3.12 0.016-0.043 0.059-0.047 0.224-0.020 0.115 0.024 0.208 0.043 0.213 0.048zM9.601 2.932c0.024 0.036 0.208 2.204 0.437 5.041 0.075 0.964 0.149 1.845 0.161 1.956 0.020 0.201 0.016 0.208-0.111 0.287-0.045 0.031-0.097 0.057-0.152 0.077l-0.005 0.002c-0.012 0-0.036-0.103-0.047-0.228-0.055-0.512-0.268-2.983-0.417-4.769-0.087-1.051-0.165-1.991-0.177-2.093-0.020-0.173-0.016-0.189 0.087-0.244 0.125-0.067 0.197-0.079 0.224-0.028zM20.435 3.723c0.111 0.040 0.121 0.059 0.145 0.284 0.040 0.393 0.028 2.275-0.016 2.275-0.115 0-0.351-0.133-0.369-0.208-0.016-0.296-0.026-0.642-0.026-0.991 0-0.088 0.001-0.175 0.002-0.263l-0 0.013c0-1.279-0.016-1.204 0.264-1.111zM13.167 3.908c0 0.107 0.028 0.692 0.059 1.311l0.083 1.74c0.028 0.685 0.036 0.661-0.228 0.677-0.129 0.004-0.129 0.004-0.137-0.193-0.008-0.111-0.028-0.452-0.051-0.768-0.020-0.315-0.067-0.996-0.099-1.515s-0.071-1.035-0.083-1.145c-0.024-0.197-0.020-0.204 0.087-0.244 0.072-0.025 0.156-0.041 0.243-0.043l0.001-0c0.125-0.004 0.125-0.004 0.125 0.18zM24.083 4.447l0.133 0.055 0.028 0.527c0.012 0.287 0.020 0.909 0.012 1.377l-0.012 0.857-0.165-0.083-0.165-0.079-0.012-1.307c-0.008-0.72-0.004-1.331 0.004-1.357 0.016-0.059 0.016-0.059 0.177 0.009zM16.897 4.963c0.024 0.024 0.079 1.932 0.083 2.9l0.004 0.583-0.185-0.028c-0.075-0.006-0.142-0.016-0.209-0.030l0.011 0.002c-0.012-0.008-0.129-2.924-0.129-3.207v-0.291l0.201 0.024c0.083 0.008 0.159 0.024 0.231 0.049l-0.007-0.002zM25.96 5.241c0.047 0.055 0.055 0.917 0.067 5.671 0.012 5.459 0.012 5.6-0.059 5.6-0.052-0.004-0.099-0.022-0.138-0.051l0.001 0c-0.059-0.043-0.067-0.52-0.087-5.183-0.008-2.13-0.025-4.131-0.051-6.13l0.004 0.428-0.024-0.567 0.115 0.083c0.067 0.047 0.141 0.115 0.172 0.149zM22.431 6.049c0.020 0.016 0.040 0.24 0.043 0.496 0.020 0.869 0.024 6.201 0.004 6.217-0.008 0.008-0.079-0.012-0.157-0.043l-0.141-0.059v-6.693l0.111 0.024c0.059 0.016 0.123 0.040 0.141 0.057zM11.569 6.269c0.012 0.107 0.032 0.347 0.043 0.543l0.063 0.976c0.047 0.692 0.040 0.736-0.185 0.736-0.119 0-0.133-0.012-0.149-0.129-0.040-0.232-0.177-2.168-0.157-2.2 0.092-0.053 0.2-0.091 0.314-0.106l0.004-0c0.024-0.004 0.055 0.079 0.068 0.181zM5.060 7.272l0.193 1.94c0.067 0.649 0.123 1.2 0.123 1.224 0 0.047-0.303 0.197-0.335 0.165-0.095-0.602-0.241-1.858-0.369-3.119l-0.044-0.541c0-0.095 0.303-0.492 0.343-0.448 0.012 0.008 0.051 0.359 0.089 0.779zM20.489 7.685l0.115 0.067 0.004 0.851c0.004 0.464 0.012 0.984 0.012 1.153 0.008 0.355-0.036 0.413-0.248 0.339l-0.121-0.043v-0.339c0-0.189-0.012-0.736-0.028-1.22l-0.024-0.873h0.091c0.075 0.009 0.142 0.032 0.203 0.067l-0.003-0.001zM6.788 9.212l0.26 2.833 0.133 1.456-0.153 0.153-0.149 0.153-0.028-0.311c-0.016-0.173-0.095-0.976-0.177-1.787s-0.201-1.987-0.26-2.613l-0.111-1.133 0.153-0.141c0.137-0.129 0.153-0.133 0.181-0.063 0.016 0.040 0.083 0.692 0.151 1.452zM3.84 9.689c0.087 0.775 0.315 2.837 0.512 4.58s0.381 3.424 0.417 3.739c0.032 0.315 0.087 0.791 0.119 1.063 0.055 0.46 0.055 0.492-0.008 0.539-0.095 0.071-0.133 0.063-0.133-0.020 0-0.036-0.036-0.335-0.079-0.657-0.071-0.539-0.189-1.452-0.452-3.503-0.055-0.413-0.161-1.236-0.236-1.829 0.179 1.906 0.006 0.596-0.163-0.715l-0.329-3.114c-0.071-0.535-0.115-1.012-0.103-1.063 0.028-0.107 0.26-0.476 0.284-0.452 0.008 0.012 0.087 0.653 0.171 1.433zM2.636 11.385l0.244 1.92c0.075 0.583 0.169 1.311 0.212 1.613l0.075 0.551-0.083 0.071c-0.047 0.040-0.095 0.055-0.111 0.040s-0.047-0.173-0.071-0.347-0.169-1.184-0.327-2.243l-0.28-1.928 0.091-0.268c0.026-0.1 0.064-0.188 0.113-0.268l-0.002 0.004c0.016 0 0.075 0.385 0.139 0.855zM24.24 10.869c0.055 0.055 0.063 0.299 0.063 2.105v2.043h-0.111c-0.24 0-0.236 0.059-0.252-2.176l-0.012-2.035h0.125c0.067 0 0.153 0.028 0.187 0.063zM15.627 11.573c0.889 0.133 1.664 0.381 2.432 0.775 0.496 0.256 0.732 0.433 1.283 0.96 0.819 0.783 1.323 1.468 1.795 2.436 0.688 1.409 0.956 2.656 1.295 6.001 0.153 1.499 0.355 4.219 0.397 5.332 0.012 0.323 0.040 0.853 0.063 1.18 0.043 0.692 0.095 0.599-0.516 0.893-0.847 0.409-1.66 0.692-2.735 0.956-1.315 0.323-2.164 0.425-3.463 0.429l-0.944 0.004 0.008-0.452c0-0.248 0.024-0.827 0.047-1.279 0.119-2.192 0.095-4.959-0.059-6.493-0.087-0.881-0.256-1.952-0.351-2.188-0.020-0.051 0.071-0.095 0.46-0.228 0.712-0.248 1.331-0.559 1.424-0.712 0.169-0.291-0.133-0.708-0.52-0.708-0.067 0-0.268 0.071-0.452 0.153-0.881 0.405-2.648 0.881-3.668 0.988-0.254 0.022-0.55 0.035-0.849 0.035-0.603 0-1.195-0.051-1.77-0.15l0.062 0.009c-0.413-0.075-1.153-0.355-1.771-0.673-0.712-0.369-1.149-0.861-1.279-1.444-0.071-0.315-0.051-0.944 0.040-1.299 0.099-0.389 0.373-0.956 0.625-1.287 1.121-1.476 3.436-2.755 5.808-3.203 0.432-0.075 0.93-0.118 1.438-0.118 0.423 0 0.839 0.030 1.246 0.087l-0.047-0.005zM27.767 11.696c0.141 0.059 0.157 0.075 0.157 0.208 0.008 1.075-0.016 3.529-0.036 3.632-0.004 0.036-0.208 0.040-0.295 0.008-0.055-0.020-0.063-0.232-0.063-1.968 0-1.244 0.016-1.944 0.040-1.944 0.020 0 0.111 0.028 0.196 0.064zM29.485 13.856l0.141 0.059-0.028 3.259c-0.032 4.152-0.036 4.273-0.185 4.632-0.244 0.587-0.232 0.704-0.208-1.869 0.008-1.287 0.028-2.589 0.036-2.892s0.016-1.157 0.020-1.901c0-0.897 0.012-1.345 0.040-1.345 0.024 0 0.107 0.028 0.184 0.059zM5.82 14.836c0.024 0.319 0.016 0.351-0.099 0.603l-0.125 0.268-0.047-0.393c-0.075-0.629-0.075-0.657 0.075-0.752 0.067-0.047 0.137-0.079 0.149-0.071s0.036 0.165 0.047 0.345zM3.388 17.209c0.036 0.323 0.311 2.464 0.452 3.515 0.212 1.625 0.228 1.857 0.133 1.759-0.061-0.284-0.13-0.698-0.186-1.115l-0.011-0.101c-0.613-4.243-0.609-4.215-0.559-4.247 0.107-0.071 0.141-0.032 0.171 0.189zM6.221 19.011c0.024 0.099 0.137 1.165 0.137 1.295 0 0.111-0.141 0.212-0.204 0.149-0.020-0.020-0.071-0.355-0.111-0.74l-0.099-0.901-0.024-0.197 0.137 0.157c0.065 0.068 0.12 0.146 0.16 0.232l0.002 0.005zM9.397 20.495c0.043 0.040 0.071 0.197 0.107 0.621 0.059 0.768 0.067 0.708-0.095 0.708-0.165 0-0.161 0.012-0.216-0.681-0.055-0.704-0.055-0.696 0.051-0.696 0.051 0 0.119 0.024 0.153 0.048zM12.513 20.553c0.008 0.040 0.028 0.276 0.043 0.524 0.012 0.248 0.047 0.807 0.079 1.24 0.111 1.589 0.115 1.791 0.047 1.791-0.075 0-0.083-0.059-0.169-1.18-0.059-0.871-0.105-1.432-0.156-1.992l0.027 0.367c-0.036-0.429-0.059-0.787-0.047-0.795 0.043-0.047 0.157-0.012 0.177 0.045zM5.116 21.309c0.024 0.036 0.173 1.295 0.359 3.015 0.055 0.52 0.111 1.019 0.121 1.113l0.020 0.169-0.099-0.063c-0.062-0.036-0.103-0.102-0.103-0.177 0-0.006 0-0.011 0.001-0.017l-0 0.001c0-0.248-0.169-1.881-0.299-2.88-0.075-0.567-0.133-1.067-0.133-1.113 0-0.083 0.095-0.115 0.133-0.048zM27.825 22.955l-0.028 1.645-0.099 0.145c-0.224 0.331-0.212 0.393-0.201-1.448l0.008-1.688 0.145-0.149c0.050-0.056 0.107-0.104 0.17-0.143l0.003-0.002c0.012 0 0.012 0.74 0.001 1.64zM24.185 25.563c0.020 2.287 0.016 2.464-0.047 2.535-0.040 0.043-0.075 0.071-0.087 0.059-0.028-0.032-0.067-5.017-0.036-5.045 0.016-0.016 0.055-0.024 0.091-0.020 0.051 0.012 0.063 0.291 0.079 2.472zM11.333 23.997c0.028 0.244 0.125 1.413 0.165 1.964 0.024 0.369 0.024 0.381-0.063 0.409-0.047 0.016-0.103 0.012-0.119-0.008-0.028-0.028-0.115-0.901-0.22-2.247l-0.028-0.323h0.121c0.115 0 0.121 0.008 0.143 0.204zM8.24 25.375c0.028 0.028 0.047 0.125 0.047 0.224 0 0.103 0.047 0.633 0.099 1.184 0.149 1.507 0.161 1.712 0.095 1.672-0.103-0.059-0.193-0.149-0.173-0.173-0.002-0.156-0.016-0.307-0.042-0.454l0.002 0.016c-0.028-0.228-0.063-0.599-0.079-0.827s-0.051-0.645-0.083-0.925c-0.075-0.688-0.071-0.768 0.016-0.768 0.040 0 0.091 0.020 0.119 0.051zM10.101 28.023c0.012 0.087 0.036 0.409 0.051 0.716 0.028 0.591 0.016 0.633-0.145 0.512-0.047-0.036-0.079-0.185-0.125-0.633-0.083-0.811-0.087-0.779 0.067-0.764 0.115 0.012 0.129 0.028 0.153 0.169zM8.696 13.459c-0.409 0.177-0.441 0.732-0.055 0.929 0.28 0.141 0.563 0.075 0.708-0.169 0.052-0.080 0.083-0.178 0.083-0.283 0-0.289-0.234-0.523-0.523-0.523-0.078 0-0.151 0.017-0.217 0.047l0.003-0.001zM11.364 13.836c-0.171 0.109-0.283 0.297-0.283 0.511s0.112 0.403 0.28 0.51l0.002 0.001c0.373 0.224 0.857-0.071 0.857-0.52 0-0.433-0.496-0.724-0.857-0.503z"></path>
</symbol>
<symbol id="icon-facebook" viewBox="0 0 32 32">
<path fill="#1877f2" style="fill: var(--color1, #1877f2)" d="M31.997 15.999c0-8.836-7.163-15.999-15.999-15.999s-15.999 7.163-15.999 15.999c0 7.985 5.851 14.604 13.499 15.804v-11.18h-4.062v-4.625h4.062v-3.525c0-4.010 2.389-6.225 6.043-6.225 1.75 0 3.581 0.313 3.581 0.313v3.937h-2.017c-1.987 0-2.607 1.233-2.607 2.498v3.001h4.437l-0.709 4.625h-3.728v11.18c7.649-1.2 13.499-7.819 13.499-15.804z"></path>
</symbol>
<symbol id="icon-instagram" viewBox="0 0 32 32">
<path fill="#e4405f" style="fill: var(--color2, #e4405f)" d="M16 0c-4.347 0-4.889 0.020-6.596 0.096-1.704 0.080-2.864 0.348-3.884 0.744-1.052 0.408-1.945 0.956-2.835 1.845s-1.439 1.781-1.845 2.835c-0.396 1.020-0.665 2.18-0.744 3.884-0.080 1.707-0.096 2.249-0.096 6.596s0.020 4.889 0.096 6.596c0.080 1.703 0.348 2.864 0.744 3.884 0.408 1.051 0.956 1.945 1.845 2.835 0.889 0.888 1.781 1.439 2.835 1.845 1.021 0.395 2.181 0.665 3.884 0.744 1.707 0.080 2.249 0.096 6.596 0.096s4.889-0.020 6.596-0.096c1.703-0.080 2.864-0.349 3.884-0.744 1.051-0.408 1.945-0.957 2.835-1.845 0.888-0.889 1.439-1.78 1.845-2.835 0.395-1.020 0.665-2.181 0.744-3.884 0.080-1.707 0.096-2.249 0.096-6.596s-0.020-4.889-0.096-6.596c-0.080-1.703-0.349-2.865-0.744-3.884-0.408-1.052-0.957-1.945-1.845-2.835-0.889-0.889-1.78-1.439-2.835-1.845-1.020-0.396-2.181-0.665-3.884-0.744-1.707-0.080-2.249-0.096-6.596-0.096zM16 2.88c4.271 0 4.78 0.021 6.467 0.095 1.56 0.073 2.407 0.332 2.969 0.553 0.749 0.289 1.28 0.636 1.843 1.195 0.559 0.56 0.905 1.092 1.195 1.841 0.219 0.563 0.48 1.409 0.551 2.969 0.076 1.688 0.093 2.195 0.093 6.467s-0.020 4.78-0.099 6.467c-0.081 1.56-0.341 2.407-0.561 2.969-0.299 0.749-0.639 1.28-1.199 1.843-0.559 0.559-1.099 0.905-1.84 1.195-0.56 0.219-1.42 0.48-2.98 0.551-1.699 0.076-2.199 0.093-6.479 0.093-4.281 0-4.781-0.020-6.479-0.099-1.561-0.081-2.421-0.341-2.981-0.561-0.759-0.299-1.28-0.639-1.839-1.199-0.561-0.559-0.92-1.099-1.2-1.84-0.22-0.56-0.479-1.42-0.56-2.98-0.060-1.68-0.081-2.199-0.081-6.459 0-4.261 0.021-4.781 0.081-6.481 0.081-1.56 0.34-2.419 0.56-2.979 0.28-0.76 0.639-1.28 1.2-1.841 0.559-0.559 1.080-0.919 1.839-1.197 0.56-0.221 1.401-0.481 2.961-0.561 1.7-0.060 2.2-0.080 6.479-0.080zM16 7.784c-4.54 0-8.216 3.68-8.216 8.216 0 4.54 3.68 8.216 8.216 8.216 4.54 0 8.216-3.68 8.216-8.216 0-4.54-3.68-8.216-8.216-8.216zM16 21.333c-2.947 0-5.333-2.387-5.333-5.333s2.387-5.333 5.333-5.333 5.333 2.387 5.333 5.333-2.387 5.333-5.333 5.333zM26.461 7.46c0 1.060-0.861 1.92-1.92 1.92-1.060 0-1.92-0.861-1.92-1.92s0.861-1.919 1.92-1.919c1.057-0.001 1.92 0.86 1.92 1.919z"></path>
</symbol>
<symbol id="icon-node-dot-js" viewBox="0 0 32 32">
<path fill="#393" style="fill: var(--color3, #393)" d="M15.997 32c-0.428 0-0.855-0.112-1.229-0.329l-3.915-2.316c-0.584-0.327-0.299-0.443-0.107-0.511 0.78-0.271 0.937-0.333 1.771-0.805 0.087-0.049 0.201-0.031 0.291 0.023l3.008 1.785c0.109 0.060 0.263 0.060 0.363 0l11.727-6.768c0.109-0.063 0.179-0.188 0.179-0.317v-13.533c0-0.132-0.071-0.256-0.183-0.323l-11.721-6.763c-0.108-0.063-0.252-0.063-0.361 0l-11.719 6.764c-0.113 0.065-0.185 0.193-0.185 0.321v13.533c0 0.129 0.072 0.252 0.185 0.313l3.212 1.856c1.743 0.872 2.811-0.155 2.811-1.187v-13.361c0-0.189 0.152-0.337 0.341-0.337h1.487c0.185 0 0.34 0.149 0.34 0.337v13.361c0 2.327-1.267 3.66-3.472 3.66-0.677 0-1.212 0-2.701-0.735l-3.077-1.769c-0.76-0.439-1.229-1.26-1.229-2.139v-13.533c0-0.879 0.471-1.7 1.229-2.137l11.727-6.776c0.743-0.42 1.728-0.42 2.464 0l11.725 6.776c0.76 0.439 1.232 1.259 1.232 2.137v13.533c0 0.879-0.472 1.697-1.232 2.139l-11.725 6.771c-0.373 0.217-0.799 0.329-1.233 0.329zM25.465 18.657c0-2.533-1.712-3.208-5.316-3.684-3.641-0.481-4.012-0.731-4.012-1.583 0-0.704 0.313-1.644 3.011-1.644 2.409 0 3.297 0.519 3.663 2.143 0.032 0.153 0.172 0.265 0.329 0.265h1.521c0.095 0 0.184-0.041 0.248-0.108 0.064-0.072 0.099-0.164 0.089-0.261-0.236-2.797-2.095-4.101-5.851-4.101-3.344 0-5.339 1.411-5.339 3.777 0 2.567 1.984 3.276 5.193 3.593 3.84 0.376 4.137 0.937 4.137 1.692 0 1.311-1.052 1.869-3.523 1.869-3.103 0-3.785-0.779-4.015-2.323-0.027-0.165-0.168-0.287-0.337-0.287h-1.516c-0.188 0-0.339 0.149-0.339 0.337 0 1.976 1.075 4.331 6.207 4.331 3.717 0.001 5.848-1.461 5.848-4.017z"></path>
</symbol>
<symbol id="icon-react" viewBox="0 0 32 32">
<path fill="#61dafb" style="fill: var(--color4, #61dafb)" d="M16 13.148c-1.575 0-2.852 1.277-2.852 2.852s1.277 2.852 2.852 2.852v0c1.575 0 2.852-1.277 2.852-2.852s-1.277-2.852-2.852-2.852v0zM8.011 21.673l-0.629-0.16c-4.691-1.185-7.381-3.197-7.381-5.519s2.691-4.333 7.381-5.519l0.629-0.159 0.177 0.624c0.545 1.86 1.163 3.443 1.899 4.957l-0.082-0.186 0.135 0.284-0.135 0.284c-0.656 1.329-1.275 2.912-1.761 4.551l-0.056 0.22zM7.089 11.933c-3.565 1.001-5.753 2.533-5.753 4.061 0 1.527 2.188 3.059 5.753 4.061 0.512-1.62 1.046-2.965 1.662-4.263l-0.086 0.202c-0.531-1.098-1.066-2.443-1.511-3.828l-0.065-0.234zM23.989 21.673l-0.177-0.625c-0.544-1.859-1.162-3.441-1.9-4.954l0.081 0.184-0.135-0.284 0.135-0.284c0.656-1.329 1.275-2.911 1.762-4.55l0.056-0.221 0.177-0.624 0.631 0.159c4.689 1.185 7.38 3.197 7.38 5.52s-2.691 4.333-7.38 5.519zM23.335 15.995c0.64 1.385 1.169 2.747 1.576 4.061 3.567-1.003 5.753-2.535 5.753-4.061 0-1.528-2.188-3.059-5.753-4.061-0.511 1.619-1.045 2.963-1.662 4.262l0.086-0.2zM7.080 11.927l-0.177-0.623c-1.319-4.648-0.919-7.979 1.097-9.141 1.977-1.141 5.152 0.207 8.479 3.621l0.453 0.465-0.453 0.465c-1.146 1.19-2.207 2.482-3.162 3.853l-0.068 0.103-0.18 0.257-0.313 0.027c-1.875 0.151-3.596 0.439-5.264 0.86l0.218-0.047zM9.608 3.087c-0.357 0-0.673 0.077-0.94 0.231-1.325 0.764-1.56 3.42-0.647 7.004 1.21-0.285 2.681-0.521 4.18-0.658l0.131-0.010c0.894-1.264 1.792-2.37 2.756-3.414l-0.020 0.022c-2.080-2.025-4.049-3.175-5.46-3.175zM22.393 30.236c-0.001 0-0.001 0 0 0-1.9 0-4.34-1.431-6.872-4.031l-0.453-0.465 0.453-0.465c1.146-1.19 2.206-2.482 3.16-3.854l0.068-0.103 0.18-0.257 0.312-0.027c1.875-0.15 3.597-0.438 5.267-0.858l-0.218 0.046 0.629-0.159 0.179 0.624c1.316 4.645 0.917 7.977-1.099 9.139-0.449 0.259-0.988 0.411-1.562 0.411-0.016 0-0.031-0-0.047-0l0.002 0zM16.932 25.728c2.080 2.025 4.049 3.175 5.46 3.175h0.001c0.356 0 0.673-0.077 0.939-0.231 1.325-0.764 1.561-3.421 0.647-7.005-1.212 0.286-2.682 0.522-4.182 0.658l-0.13 0.010c-0.893 1.265-1.791 2.371-2.755 3.416l0.020-0.022zM24.92 11.927l-0.629-0.159c-1.453-0.376-3.175-0.664-4.939-0.806l-0.111-0.007-0.312-0.027-0.18-0.257c-1.021-1.474-2.082-2.766-3.237-3.966l0.009 0.010-0.453-0.465 0.453-0.465c3.325-3.413 6.499-4.761 8.479-3.621 2.016 1.163 2.416 4.493 1.099 9.14zM19.667 9.653c1.523 0.139 2.969 0.364 4.312 0.668 0.915-3.584 0.679-6.24-0.647-7.004-1.317-0.761-3.793 0.405-6.4 2.944 0.943 1.022 1.841 2.128 2.666 3.289l0.069 0.103zM9.608 30.236c-0.014 0-0.030 0-0.046 0-0.574 0-1.113-0.152-1.577-0.419l0.015 0.008c-2.016-1.161-2.416-4.492-1.097-9.139l0.176-0.624 0.629 0.159c1.54 0.388 3.239 0.661 5.047 0.812l0.313 0.027 0.179 0.257c1.022 1.475 2.083 2.767 3.239 3.967l-0.010-0.010 0.453 0.465-0.453 0.465c-2.531 2.6-4.971 4.031-6.868 4.031zM8.021 21.667c-0.915 3.584-0.679 6.241 0.647 7.005 1.316 0.751 3.791-0.407 6.4-2.944-0.943-1.022-1.841-2.129-2.667-3.29l-0.069-0.103c-1.629-0.146-3.099-0.382-4.534-0.711l0.224 0.043zM16 22.504c-1.097 0-2.225-0.048-3.355-0.141l-0.313-0.027-0.18-0.257c-0.544-0.768-1.139-1.691-1.697-2.639l-0.103-0.19c-0.452-0.758-0.971-1.732-1.45-2.728l-0.105-0.243-0.133-0.284 0.133-0.284c0.584-1.239 1.102-2.212 1.658-3.161l-0.103 0.191c0.552-0.955 1.159-1.907 1.8-2.829l0.18-0.257 0.313-0.027c1.005-0.090 2.174-0.142 3.355-0.142s2.35 0.052 3.505 0.153l-0.15-0.011 0.312 0.027 0.179 0.257c1.177 1.666 2.294 3.567 3.252 5.56l0.104 0.24 0.135 0.284-0.135 0.284c-1.058 2.232-2.176 4.133-3.439 5.925l0.083-0.125-0.179 0.257-0.312 0.027c-1.129 0.093-2.259 0.141-3.356 0.141zM13.071 21.059c1.973 0.148 3.885 0.148 5.86 0 1.004-1.445 1.978-3.104 2.827-4.836l0.101-0.228c-0.947-1.958-1.922-3.617-3.012-5.19l0.083 0.126c-0.877-0.071-1.898-0.111-2.929-0.111s-2.052 0.040-3.063 0.119l0.134-0.008c-1.008 1.447-1.983 3.106-2.83 4.84l-0.099 0.224c0.951 1.96 1.926 3.619 3.014 5.193l-0.085-0.13z"></path>
</symbol>
<symbol id="icon-twitter" viewBox="0 0 32 32">
<path fill="#1da1f2" style="fill: var(--color5, #1da1f2)" d="M31.939 6.092c-1.18 0.519-2.44 0.872-3.767 1.033 1.352-0.815 2.392-2.099 2.884-3.631-1.268 0.74-2.673 1.279-4.169 1.579-1.195-1.279-2.897-2.079-4.788-2.079-3.623 0-6.56 2.937-6.56 6.556 0 0.52 0.060 1.020 0.169 1.499-5.453-0.257-10.287-2.876-13.521-6.835-0.569 0.963-0.888 2.081-0.888 3.3 0 2.28 1.16 4.284 2.917 5.461-1.076-0.035-2.088-0.331-2.971-0.821v0.081c0 3.18 2.257 5.832 5.261 6.436-0.551 0.148-1.132 0.228-1.728 0.228-0.419 0-0.82-0.040-1.221-0.115 0.841 2.604 3.26 4.503 6.139 4.556-2.24 1.759-5.079 2.807-8.136 2.807-0.52 0-1.039-0.031-1.56-0.089 2.919 1.859 6.357 2.945 10.076 2.945 12.072 0 18.665-9.995 18.665-18.648 0-0.279 0-0.56-0.020-0.84 1.281-0.919 2.4-2.080 3.28-3.397z"></path>
</symbol>
<symbol id="icon-vue-dot-js" viewBox="0 0 32 32">
<path fill="#4fc08d" style="fill: var(--color6, #4fc08d)" d="M32 2.147h-13.253l-2.747 4.733-2.747-4.733h-13.253l16 27.707zM16 18.773l-9.12-15.8h5.907l3.213 5.573 3.213-5.573h5.907z"></path>
</symbol>
</defs>
</svg>
